<?xml version="1.0" encoding="UTF-8"?>
<svg width="46px" height="46px" viewBox="0 0 46 46" version="1.1" xmlns="http://www.w3.org/2000/svg" xmlns:xlink="http://www.w3.org/1999/xlink">
    <!-- Generator: Sketch 52.6 (67491) - http://www.bohemiancoding.com/sketch -->
    <title>Group 9</title>
    <desc>Created with Sketch.</desc>
    <g id="top-navigation" stroke="none" stroke-width="1" fill="none" fill-rule="evenodd">
        <g id="nav-redesign-final-solid" transform="translate(-645.000000, -158.000000)">
            <g id="Group-9" transform="translate(646.000000, 159.000000)">
                <path d="M33.7784857,35.6185388 C31.9659551,36.4231102 29.8440776,35.6059673 29.0395061,33.7934367 C28.2349347,31.9800082 29.0525265,29.8590286 30.8650571,29.0540082 C32.6780367,28.2498857 34.7990163,29.0670286 35.6040367,30.8795592 C36.4081592,32.6920898 35.5910163,34.8139673 33.7784857,35.6185388 M43.8971388,34.8548245 C43.2919143,34.5266204 42.6866898,34.1997633 42.0828122,33.8697633 C41.7716694,33.6996 41.5822,33.4427837 41.537302,33.1150286 C41.5305673,33.0530694 41.517098,32.994702 41.5197918,32.9278041 C41.5395469,32.3966612 41.5247306,31.8677633 41.4802816,31.3384163 C41.4744449,31.2656816 41.4829755,31.1996816 41.4892612,31.1327837 L41.5197918,30.949151 C41.5884857,30.6963755 41.7429347,30.4858041 41.9957102,30.3300082 C42.417302,30.068702 42.8424857,29.8132327 43.2667714,29.5546204 C43.4589347,29.4383347 43.650649,29.3216 43.847302,29.2008245 C43.495302,28.0613143 43.0180367,26.9846612 42.4083224,25.9663755 C42.3890163,25.9717633 42.3764449,25.9749061 42.3607306,25.9793959 L42.3706082,25.9214776 C41.7047714,26.1181306 41.0380367,26.3116408 40.373098,26.5118857 C39.9277102,26.6461306 39.5384449,26.5639673 39.2201184,26.2218449 C38.8577918,25.8325796 38.4725673,25.4693551 38.0657918,25.1254367 C37.8246898,24.922049 37.7012204,24.6728653 37.6864041,24.3909061 C37.6868531,24.3078449 37.6931388,24.2229878 37.7133429,24.1345388 C37.8691388,23.4529878 38.039302,22.7754776 38.2085673,22.0970694 C38.2175469,22.062498 38.2148531,22.038702 38.2072204,22.018049 C38.2135061,21.9929061 38.2193429,21.9695592 38.2251796,21.9444163 C37.1687306,21.3872327 36.0682816,20.962049 34.9148531,20.6724571 C34.894649,20.7083755 34.8798327,20.7344163 34.8659143,20.7604571 C34.5368122,21.3643347 34.2099551,21.9700082 33.8790571,22.5725388 C33.6734245,22.9469878 33.3524041,23.1499265 32.9245265,23.1382531 C32.3677918,23.1229878 31.813751,23.1360082 31.2592612,23.1795592 C30.847098,23.2114367 30.5162,23.0376816 30.2979959,22.6901714 C29.9253429,22.0984163 29.5648122,21.4990286 29.2042816,20.8996408 C29.1616286,20.828702 29.1221184,20.8206204 29.0547714,20.8453143 C28.5788531,21.0235592 28.0984449,21.1896816 27.6274653,21.380049 C27.0639959,21.6081306 26.5256694,21.8905388 26.0012612,22.1980898 C25.9608531,22.2218857 25.9258327,22.2456816 25.9289755,22.3000082 C25.9226898,22.3036 25.9159551,22.3062939 25.9101184,22.3094367 C25.9208939,22.3498449 25.9303224,22.3844163 25.939751,22.4189878 C26.1346082,23.0749469 26.3308122,23.7300082 26.5220776,24.3868653 C26.5454245,24.4667837 26.5544041,24.5431102 26.5624857,24.6198857 C26.5723633,24.9404571 26.4533837,25.2242122 26.1772612,25.471151 C25.7996694,25.8105796 25.4575469,26.1836816 25.1302408,26.5733959 C24.841098,26.9186612 24.4684449,27.0353959 24.0302408,26.9307837 C23.4124449,26.7844163 22.7964449,26.6326612 22.1795469,26.484049 C22.0982816,26.4642939 22.0170163,26.4449878 21.9326082,26.4247837 C21.8419143,26.5967429 21.7768122,26.7767837 21.6928531,26.9509878 C21.6825265,26.9720898 21.6708531,26.9927429 21.6605265,27.0142939 C21.6457102,27.0457224 21.6349347,27.078498 21.6201184,27.1099265 C21.2250163,27.9562531 20.8882816,28.8209878 20.6579551,29.7283755 C20.6633429,29.7315184 20.6678327,29.7337633 20.6732204,29.7364571 C20.6691796,29.7723755 20.6763633,29.7984163 20.7203633,29.8217633 C21.321098,30.1441306 21.9191388,30.4718857 22.5198735,30.795151 C22.9329347,31.0169469 23.1444041,31.3541306 23.1255469,31.8251102 C23.1053429,32.3405388 23.1156694,32.8555184 23.1650571,33.369151 C23.1722408,33.4441306 23.1637102,33.5119265 23.1592204,33.5810694 C23.1291388,33.8913143 22.9733429,34.1490286 22.6904857,34.3295184 C22.310649,34.5719673 21.9222816,34.8018449 21.5375061,35.0362122 C21.2937102,35.1848245 21.0508122,35.3334367 20.8088122,35.480702 C20.8106082,35.4991102 20.8097102,35.5112327 20.8142,35.5224571 C20.814649,35.524702 20.815098,35.526498 20.8159959,35.5282939 C20.8119551,35.5309878 20.8079143,35.5327837 20.8047714,35.5350286 C20.8061184,35.5507429 20.8061184,35.5565796 20.8079143,35.5624163 C20.8501184,35.700702 20.9125265,35.8304571 20.9587714,35.966498 C20.968649,35.9956816 20.9767306,36.0244163 20.9870571,36.0536 C21.0009755,36.0917633 21.0193837,36.1281306 21.033302,36.1658449 C21.3480367,37.0498857 21.7242816,37.9065388 22.2037918,38.7173959 C22.2392612,38.7784571 22.2742816,38.7640898 22.3218735,38.7501714 C22.9939959,38.5508245 23.6652204,38.3483347 24.3386898,38.1552735 C24.7324449,38.0425796 25.0934245,38.1256408 25.3762816,38.4201714 C25.7718327,38.8314367 26.1844449,39.222498 26.6159143,39.596498 C26.8404041,39.7909061 26.9499551,40.0329061 26.9593837,40.3031918 C26.9589347,40.3992735 26.9486082,40.5002939 26.9230163,40.6049061 C26.8026898,41.1046204 26.6805673,41.6034367 26.5597918,42.1022531 C26.512649,42.2966612 26.4659551,42.4919673 26.4197102,42.6823347 C26.4322816,42.6922122 26.4363224,42.6962531 26.4412612,42.6993959 C26.4426082,42.6993959 26.4439551,42.6998449 26.4448531,42.7002939 C26.4556286,42.7496816 26.4982816,42.7784163 26.6060367,42.8376816 C26.6271388,42.8493551 26.6482408,42.8605796 26.6702408,42.8713551 C27.347302,43.2130286 28.0481592,43.5026204 28.7705673,43.7351918 C29.0597102,43.8276816 29.3537918,43.9062531 29.6451796,43.9902122 C29.6909755,44.0036816 29.7300367,44.0131102 29.7641592,43.9516 C30.0928122,43.3409878 30.4255061,42.7330694 30.757302,42.1242531 C30.9696694,41.7349878 31.2996694,41.532498 31.7414653,41.5455184 C32.2797918,41.5612327 32.8158735,41.5509061 33.353302,41.5042122 C33.7906082,41.4673959 34.1309347,41.6460898 34.3635061,42.0191918 C34.5547714,42.324498 34.7402,42.6329469 34.9283224,42.9409469 C35.1159959,43.2476 35.3032204,43.555151 35.4935878,43.8658449 C36.6348939,43.5147429 37.7155878,43.0379265 38.7370163,42.4295592 C38.7284857,42.3990286 38.722649,42.3770286 38.7163633,42.3541306 C38.7181592,42.3415592 38.7253429,42.3316816 38.7190571,42.3119265 C38.5192612,41.6483347 38.3235061,40.9833959 38.1268531,40.3189061 C38.0972204,40.2187837 38.0819551,40.1222531 38.0761184,40.0284163 C38.0711796,39.7599265 38.1632204,39.5129878 38.3751388,39.3082531 C38.7931388,38.9050694 39.1913837,38.4870694 39.5734653,38.0511102 L40.0655469,37.7022531 C40.2312204,37.660049 40.4099143,37.6551102 40.6016286,37.7000082 C40.9531796,37.7808245 41.3033837,37.8688245 41.6540367,37.9532327 C42.0046898,38.0380898 42.3553429,38.1229469 42.7100367,38.208702 C43.2685673,37.1549469 43.694649,36.0558449 43.9855878,34.9042122 C43.9496694,34.8835592 43.9236286,34.8687429 43.8971388,34.8548245" id="Fill-1" fill="#FC6D26"></path>
                <path d="M33.7784857,35.6185388 C31.9659551,36.4231102 29.8440776,35.6059673 29.0395061,33.7934367 C28.2349347,31.9800082 29.0525265,29.8590286 30.8650571,29.0540082 C32.6780367,28.2498857 34.7990163,29.0670286 35.6040367,30.8795592 C36.4081592,32.6920898 35.5910163,34.8139673 33.7784857,35.6185388 Z M43.8971388,34.8548245 C43.2919143,34.5266204 42.6866898,34.1997633 42.0828122,33.8697633 C41.7716694,33.6996 41.5822,33.4427837 41.537302,33.1150286 C41.5305673,33.0530694 41.517098,32.994702 41.5197918,32.9278041 C41.5395469,32.3966612 41.5247306,31.8677633 41.4802816,31.3384163 C41.4744449,31.2656816 41.4829755,31.1996816 41.4892612,31.1327837 L41.5197918,30.949151 C41.5884857,30.6963755 41.7429347,30.4858041 41.9957102,30.3300082 C42.417302,30.068702 42.8424857,29.8132327 43.2667714,29.5546204 C43.4589347,29.4383347 43.650649,29.3216 43.847302,29.2008245 C43.495302,28.0613143 43.0180367,26.9846612 42.4083224,25.9663755 C42.3890163,25.9717633 42.3764449,25.9749061 42.3607306,25.9793959 L42.3706082,25.9214776 C41.7047714,26.1181306 41.0380367,26.3116408 40.373098,26.5118857 C39.9277102,26.6461306 39.5384449,26.5639673 39.2201184,26.2218449 C38.8577918,25.8325796 38.4725673,25.4693551 38.0657918,25.1254367 C37.8246898,24.922049 37.7012204,24.6728653 37.6864041,24.3909061 C37.6868531,24.3078449 37.6931388,24.2229878 37.7133429,24.1345388 C37.8691388,23.4529878 38.039302,22.7754776 38.2085673,22.0970694 C38.2175469,22.062498 38.2148531,22.038702 38.2072204,22.018049 C38.2135061,21.9929061 38.2193429,21.9695592 38.2251796,21.9444163 C37.1687306,21.3872327 36.0682816,20.962049 34.9148531,20.6724571 C34.894649,20.7083755 34.8798327,20.7344163 34.8659143,20.7604571 C34.5368122,21.3643347 34.2099551,21.9700082 33.8790571,22.5725388 C33.6734245,22.9469878 33.3524041,23.1499265 32.9245265,23.1382531 C32.3677918,23.1229878 31.813751,23.1360082 31.2592612,23.1795592 C30.847098,23.2114367 30.5162,23.0376816 30.2979959,22.6901714 C29.9253429,22.0984163 29.5648122,21.4990286 29.2042816,20.8996408 C29.1616286,20.828702 29.1221184,20.8206204 29.0547714,20.8453143 C28.5788531,21.0235592 28.0984449,21.1896816 27.6274653,21.380049 C27.0639959,21.6081306 26.5256694,21.8905388 26.0012612,22.1980898 C25.9608531,22.2218857 25.9258327,22.2456816 25.9289755,22.3000082 C25.9226898,22.3036 25.9159551,22.3062939 25.9101184,22.3094367 C25.9208939,22.3498449 25.9303224,22.3844163 25.939751,22.4189878 C26.1346082,23.0749469 26.3308122,23.7300082 26.5220776,24.3868653 C26.5454245,24.4667837 26.5544041,24.5431102 26.5624857,24.6198857 C26.5723633,24.9404571 26.4533837,25.2242122 26.1772612,25.471151 C25.7996694,25.8105796 25.4575469,26.1836816 25.1302408,26.5733959 C24.841098,26.9186612 24.4684449,27.0353959 24.0302408,26.9307837 C23.4124449,26.7844163 22.7964449,26.6326612 22.1795469,26.484049 C22.0982816,26.4642939 22.0170163,26.4449878 21.9326082,26.4247837 C21.8419143,26.5967429 21.7768122,26.7767837 21.6928531,26.9509878 C21.6825265,26.9720898 21.6708531,26.9927429 21.6605265,27.0142939 C21.6457102,27.0457224 21.6349347,27.078498 21.6201184,27.1099265 C21.2250163,27.9562531 20.8882816,28.8209878 20.6579551,29.7283755 C20.6633429,29.7315184 20.6678327,29.7337633 20.6732204,29.7364571 C20.6691796,29.7723755 20.6763633,29.7984163 20.7203633,29.8217633 C21.321098,30.1441306 21.9191388,30.4718857 22.5198735,30.795151 C22.9329347,31.0169469 23.1444041,31.3541306 23.1255469,31.8251102 C23.1053429,32.3405388 23.1156694,32.8555184 23.1650571,33.369151 C23.1722408,33.4441306 23.1637102,33.5119265 23.1592204,33.5810694 C23.1291388,33.8913143 22.9733429,34.1490286 22.6904857,34.3295184 C22.310649,34.5719673 21.9222816,34.8018449 21.5375061,35.0362122 C21.2937102,35.1848245 21.0508122,35.3334367 20.8088122,35.480702 C20.8106082,35.4991102 20.8097102,35.5112327 20.8142,35.5224571 C20.814649,35.524702 20.815098,35.526498 20.8159959,35.5282939 C20.8119551,35.5309878 20.8079143,35.5327837 20.8047714,35.5350286 C20.8061184,35.5507429 20.8061184,35.5565796 20.8079143,35.5624163 C20.8501184,35.700702 20.9125265,35.8304571 20.9587714,35.966498 C20.968649,35.9956816 20.9767306,36.0244163 20.9870571,36.0536 C21.0009755,36.0917633 21.0193837,36.1281306 21.033302,36.1658449 C21.3480367,37.0498857 21.7242816,37.9065388 22.2037918,38.7173959 C22.2392612,38.7784571 22.2742816,38.7640898 22.3218735,38.7501714 C22.9939959,38.5508245 23.6652204,38.3483347 24.3386898,38.1552735 C24.7324449,38.0425796 25.0934245,38.1256408 25.3762816,38.4201714 C25.7718327,38.8314367 26.1844449,39.222498 26.6159143,39.596498 C26.8404041,39.7909061 26.9499551,40.0329061 26.9593837,40.3031918 C26.9589347,40.3992735 26.9486082,40.5002939 26.9230163,40.6049061 C26.8026898,41.1046204 26.6805673,41.6034367 26.5597918,42.1022531 C26.512649,42.2966612 26.4659551,42.4919673 26.4197102,42.6823347 C26.4322816,42.6922122 26.4363224,42.6962531 26.4412612,42.6993959 C26.4426082,42.6993959 26.4439551,42.6998449 26.4448531,42.7002939 C26.4556286,42.7496816 26.4982816,42.7784163 26.6060367,42.8376816 C26.6271388,42.8493551 26.6482408,42.8605796 26.6702408,42.8713551 C27.347302,43.2130286 28.0481592,43.5026204 28.7705673,43.7351918 C29.0597102,43.8276816 29.3537918,43.9062531 29.6451796,43.9902122 C29.6909755,44.0036816 29.7300367,44.0131102 29.7641592,43.9516 C30.0928122,43.3409878 30.4255061,42.7330694 30.757302,42.1242531 C30.9696694,41.7349878 31.2996694,41.532498 31.7414653,41.5455184 C32.2797918,41.5612327 32.8158735,41.5509061 33.353302,41.5042122 C33.7906082,41.4673959 34.1309347,41.6460898 34.3635061,42.0191918 C34.5547714,42.324498 34.7402,42.6329469 34.9283224,42.9409469 C35.1159959,43.2476 35.3032204,43.555151 35.4935878,43.8658449 C36.6348939,43.5147429 37.7155878,43.0379265 38.7370163,42.4295592 C38.7284857,42.3990286 38.722649,42.3770286 38.7163633,42.3541306 C38.7181592,42.3415592 38.7253429,42.3316816 38.7190571,42.3119265 C38.5192612,41.6483347 38.3235061,40.9833959 38.1268531,40.3189061 C38.0972204,40.2187837 38.0819551,40.1222531 38.0761184,40.0284163 C38.0711796,39.7599265 38.1632204,39.5129878 38.3751388,39.3082531 C38.7931388,38.9050694 39.1913837,38.4870694 39.5734653,38.0511102 L40.0655469,37.7022531 C40.2312204,37.660049 40.4099143,37.6551102 40.6016286,37.7000082 C40.9531796,37.7808245 41.3033837,37.8688245 41.6540367,37.9532327 C42.0046898,38.0380898 42.3553429,38.1229469 42.7100367,38.208702 C43.2685673,37.1549469 43.694649,36.0558449 43.9855878,34.9042122 C43.9496694,34.8835592 43.9236286,34.8687429 43.8971388,34.8548245 Z" id="Stroke-3" stroke="#333333" stroke-width="2" stroke-linecap="round" stroke-linejoin="round"></path>
                <path d="M14.4530571,14.4612735 C13.0522408,15.8656816 10.7777102,15.8688245 9.37375102,14.4680082 C7.96934286,13.0671918 7.96575102,10.7926612 9.36701633,9.38825306 C10.7673837,7.98339592 13.0414653,7.98070204 14.4458735,9.38151837 C15.8507306,10.7823347 15.8538735,13.0564163 14.4530571,14.4612735 M23.7146082,10.1124571 C23.673751,10.1066204 23.6441184,10.1021306 23.6140367,10.0980898 C22.9320367,10.0100898 22.2486898,9.92433469 21.5666898,9.83364082 C21.2151388,9.78739592 20.9462,9.61633469 20.7854653,9.32674286 C20.7571796,9.27151837 20.7239551,9.22168163 20.7019551,9.15837551 C20.529098,8.65596735 20.3239143,8.16792653 20.0922408,7.68976327 C20.0599143,7.62466122 20.044649,7.56000816 20.0257918,7.4953551 L19.9885265,7.31262041 C19.9611388,7.05266122 20.0293837,6.80078367 20.2085265,6.56372245 C20.5079959,6.16772245 20.8124041,5.77621224 21.1150163,5.38245714 C21.2519551,5.20466122 21.3884449,5.02596735 21.5289755,4.84278367 C20.7886082,3.9071102 19.955751,3.07515102 19.0191796,2.3451102 C19.0034653,2.35723265 18.9931388,2.36531429 18.9805673,2.37474286 L18.9688939,2.31682449 C18.4184449,2.74066122 17.8662,3.1613551 17.3188939,3.58833469 C16.9511796,3.87388571 16.5583224,3.9380898 16.1385265,3.73380408 C15.6599143,3.50123265 15.1696286,3.30098776 14.6667714,3.12723265 C14.3682,3.02396735 14.1630163,2.83674286 14.0476286,2.57902857 C14.0179959,2.50090612 13.993751,2.41964082 13.9802816,2.3298449 C13.8801592,1.63841633 13.7935061,0.944742857 13.707302,0.251069388 C13.7028122,0.2156 13.6920367,0.194946939 13.6772204,0.178334694 C13.6745265,0.152742857 13.6709347,0.12804898 13.6673429,0.102906122 C12.4806898,-0.0358285714 11.3012204,-0.0349306122 10.1222,0.110538776 C10.1159143,0.150946939 10.1114245,0.180579592 10.1073837,0.210661224 C10.0184857,0.891763265 9.93183265,1.5751102 9.8406898,2.25621224 C9.78366939,2.68004898 9.55738367,2.98490612 9.15375102,3.12857959 C8.62934286,3.31490612 8.11750612,3.52682449 7.61554694,3.76747755 C7.24289388,3.94617143 6.87203673,3.90262041 6.54293469,3.65792653 C5.98215918,3.24037551 5.42946531,2.8116 4.87677143,2.38282449 C4.81122041,2.33119184 4.7717102,2.33792653 4.71738367,2.38551837 C4.3384449,2.72315102 3.95007755,3.05180408 3.57922041,3.39886531 C3.13607755,3.81506939 2.73558776,4.27257959 2.35799592,4.74849796 C2.32881224,4.78531429 2.30501633,4.82033469 2.32701633,4.86972245 C2.32252653,4.8751102 2.31758776,4.88004898 2.31309796,4.88543673 C2.33779184,4.9191102 2.3584449,4.94829388 2.3804449,4.97657959 C2.79799592,5.51804898 3.21824082,6.05862041 3.63354694,6.60233469 C3.68383265,6.66833469 3.7202,6.73657959 3.75477143,6.80482449 C3.87958776,7.10025306 3.87150612,7.40780408 3.70313878,7.73780408 C3.47236327,8.19037551 3.28828163,8.66225306 3.1239551,9.14266122 C2.97803673,9.56964082 2.67273061,9.81343673 2.22734286,9.87404898 C1.59742449,9.95980408 0.968853061,10.0406204 0.339383673,10.1245796 C0.256771429,10.1349061 0.173261224,10.1470286 0.087955102,10.1582531 C0.0650571429,10.3513143 0.0690979592,10.5425796 0.0542816327,10.7351918 C0.0515877551,10.7589878 0.048444898,10.7827837 0.0466489796,10.8061306 C0.043955102,10.840702 0.0457510204,10.8757224 0.0435061224,10.9102939 C-0.0198,11.8414776 -0.022044898,12.7695184 0.0910979592,13.6993551 C0.0969346939,13.7002531 0.10142449,13.701151 0.107710204,13.702049 C0.116240816,13.7361714 0.132853061,13.7581714 0.182240816,13.7640082 C0.859302041,13.8475184 1.53546531,13.9377633 2.21117959,14.0226204 C2.67677143,14.0805388 2.99599592,14.318498 3.1482,14.7647837 C3.31522041,15.2532735 3.51097551,15.7287429 3.74264898,16.1907429 C3.77587347,16.2580898 3.79248571,16.3236408 3.8126898,16.3905388 C3.89664898,16.6904571 3.84411837,16.9872327 3.64566939,17.2579673 C3.37897551,17.6207429 3.0997102,17.9749878 2.82538367,18.3319265 C2.65207755,18.5591102 2.47877143,18.7853959 2.30591429,19.0098857 C2.3144449,19.026498 2.31848571,19.0377224 2.32566939,19.047151 C2.32701633,19.048498 2.32836327,19.0502939 2.3297102,19.0520898 L2.32162857,19.0624163 C2.32881224,19.0758857 2.33150612,19.0817224 2.33464898,19.0862122 C2.4244449,19.2002531 2.52860816,19.2981306 2.62109796,19.4090286 C2.64085306,19.4323755 2.65881224,19.4566204 2.67856735,19.4795184 C2.70550612,19.510498 2.73558776,19.5378857 2.76252653,19.5679673 C3.37493469,20.278702 4.03493469,20.9427429 4.77440408,21.5255184 C4.82962857,21.5695184 4.85701633,21.5434776 4.89652653,21.5129469 C5.45146531,21.0855184 6.00460816,20.654049 6.5626898,20.2315592 C6.88954694,19.9846204 7.25636327,19.9316408 7.62632245,20.104049 C8.14354694,20.345151 8.66930204,20.5611102 9.20628163,20.7541714 C9.48599592,20.8542939 9.67546531,21.0401714 9.78187347,21.2889061 C9.8164449,21.379151 9.84293469,21.4765796 9.85730204,21.5838857 C9.92464898,22.0930286 9.99109796,22.6026204 10.0584449,23.1122122 C10.0844857,23.3097633 10.1109755,23.5082122 10.1370163,23.7030694 C10.1518327,23.7075592 10.1576694,23.7102531 10.1630571,23.711151 L10.166649,23.711151 C10.1949347,23.7529061 10.2452204,23.7645796 10.3664449,23.7807429 C10.3902408,23.7838857 10.4140367,23.7870286 10.4387306,23.7888245 C11.1934653,23.8629061 11.9513429,23.8804163 12.7087714,23.8368653 C13.0122816,23.8189061 13.3144449,23.7865796 13.6170571,23.7591918 C13.664649,23.754702 13.7046082,23.7502122 13.7135878,23.6801714 C13.7997918,22.9927837 13.8913837,22.3053959 13.9811796,21.6175592 C14.0382,21.1780082 14.2734653,20.8704571 14.6901184,20.7227429 C15.1983633,20.5436 15.6949347,20.3411102 16.1789347,20.103151 C16.5735878,19.9109878 16.9552204,19.9549878 17.3063224,20.2189878 C17.5945673,20.4349469 17.8792204,20.6558449 18.1656694,20.8749469 C18.4512204,21.093151 18.7372204,21.312702 19.0272612,21.534049 C19.9642816,20.7945796 20.8002816,19.9603755 21.5339143,19.0242531 C21.5150571,18.9986612 21.5011388,18.980702 21.4872204,18.9613959 C21.4845265,18.9488245 21.4872204,18.938049 21.474649,18.9214367 C21.0485673,18.3745796 20.6265265,17.8245796 20.2035878,17.2763755 C20.1398327,17.1937633 20.0908939,17.1089061 20.0513837,17.023151 C19.9494653,16.7744163 19.9458735,16.5104163 20.0706898,16.2437224 C20.3153837,15.7170694 20.5353837,15.1827837 20.7347306,14.6390694 L21.0674245,14.1357633 C21.2070571,14.0369878 21.3713837,13.9678449 21.5675878,13.9404571 C21.9245265,13.8897224 22.2819143,13.8448245 22.639751,13.7972327 C22.9975878,13.7500898 23.3549755,13.7029469 23.7168531,13.6544571 C23.8573837,12.470498 23.8582816,11.2910286 23.7146082,10.1124571" id="Fill-5" fill="#FCA326"></path>
                <path d="M14.4530571,14.4612735 C13.0522408,15.8656816 10.7777102,15.8688245 9.37375102,14.4680082 C7.96934286,13.0671918 7.96575102,10.7926612 9.36701633,9.38825306 C10.7673837,7.98339592 13.0414653,7.98070204 14.4458735,9.38151837 C15.8507306,10.7823347 15.8538735,13.0564163 14.4530571,14.4612735 Z M23.7146082,10.1124571 C23.673751,10.1066204 23.6441184,10.1021306 23.6140367,10.0980898 C22.9320367,10.0100898 22.2486898,9.92433469 21.5666898,9.83364082 C21.2151388,9.78739592 20.9462,9.61633469 20.7854653,9.32674286 C20.7571796,9.27151837 20.7239551,9.22168163 20.7019551,9.15837551 C20.529098,8.65596735 20.3239143,8.16792653 20.0922408,7.68976327 C20.0599143,7.62466122 20.044649,7.56000816 20.0257918,7.4953551 L19.9885265,7.31262041 C19.9611388,7.05266122 20.0293837,6.80078367 20.2085265,6.56372245 C20.5079959,6.16772245 20.8124041,5.77621224 21.1150163,5.38245714 C21.2519551,5.20466122 21.3884449,5.02596735 21.5289755,4.84278367 C20.7886082,3.9071102 19.955751,3.07515102 19.0191796,2.3451102 C19.0034653,2.35723265 18.9931388,2.36531429 18.9805673,2.37474286 L18.9688939,2.31682449 C18.4184449,2.74066122 17.8662,3.1613551 17.3188939,3.58833469 C16.9511796,3.87388571 16.5583224,3.9380898 16.1385265,3.73380408 C15.6599143,3.50123265 15.1696286,3.30098776 14.6667714,3.12723265 C14.3682,3.02396735 14.1630163,2.83674286 14.0476286,2.57902857 C14.0179959,2.50090612 13.993751,2.41964082 13.9802816,2.3298449 C13.8801592,1.63841633 13.7935061,0.944742857 13.707302,0.251069388 C13.7028122,0.2156 13.6920367,0.194946939 13.6772204,0.178334694 C13.6745265,0.152742857 13.6709347,0.12804898 13.6673429,0.102906122 C12.4806898,-0.0358285714 11.3012204,-0.0349306122 10.1222,0.110538776 C10.1159143,0.150946939 10.1114245,0.180579592 10.1073837,0.210661224 C10.0184857,0.891763265 9.93183265,1.5751102 9.8406898,2.25621224 C9.78366939,2.68004898 9.55738367,2.98490612 9.15375102,3.12857959 C8.62934286,3.31490612 8.11750612,3.52682449 7.61554694,3.76747755 C7.24289388,3.94617143 6.87203673,3.90262041 6.54293469,3.65792653 C5.98215918,3.24037551 5.42946531,2.8116 4.87677143,2.38282449 C4.81122041,2.33119184 4.7717102,2.33792653 4.71738367,2.38551837 C4.3384449,2.72315102 3.95007755,3.05180408 3.57922041,3.39886531 C3.13607755,3.81506939 2.73558776,4.27257959 2.35799592,4.74849796 C2.32881224,4.78531429 2.30501633,4.82033469 2.32701633,4.86972245 C2.32252653,4.8751102 2.31758776,4.88004898 2.31309796,4.88543673 C2.33779184,4.9191102 2.3584449,4.94829388 2.3804449,4.97657959 C2.79799592,5.51804898 3.21824082,6.05862041 3.63354694,6.60233469 C3.68383265,6.66833469 3.7202,6.73657959 3.75477143,6.80482449 C3.87958776,7.10025306 3.87150612,7.40780408 3.70313878,7.73780408 C3.47236327,8.19037551 3.28828163,8.66225306 3.1239551,9.14266122 C2.97803673,9.56964082 2.67273061,9.81343673 2.22734286,9.87404898 C1.59742449,9.95980408 0.968853061,10.0406204 0.339383673,10.1245796 C0.256771429,10.1349061 0.173261224,10.1470286 0.087955102,10.1582531 C0.0650571429,10.3513143 0.0690979592,10.5425796 0.0542816327,10.7351918 C0.0515877551,10.7589878 0.048444898,10.7827837 0.0466489796,10.8061306 C0.043955102,10.840702 0.0457510204,10.8757224 0.0435061224,10.9102939 C-0.0198,11.8414776 -0.022044898,12.7695184 0.0910979592,13.6993551 C0.0969346939,13.7002531 0.10142449,13.701151 0.107710204,13.702049 C0.116240816,13.7361714 0.132853061,13.7581714 0.182240816,13.7640082 C0.859302041,13.8475184 1.53546531,13.9377633 2.21117959,14.0226204 C2.67677143,14.0805388 2.99599592,14.318498 3.1482,14.7647837 C3.31522041,15.2532735 3.51097551,15.7287429 3.74264898,16.1907429 C3.77587347,16.2580898 3.79248571,16.3236408 3.8126898,16.3905388 C3.89664898,16.6904571 3.84411837,16.9872327 3.64566939,17.2579673 C3.37897551,17.6207429 3.0997102,17.9749878 2.82538367,18.3319265 C2.65207755,18.5591102 2.47877143,18.7853959 2.30591429,19.0098857 C2.3144449,19.026498 2.31848571,19.0377224 2.32566939,19.047151 C2.32701633,19.048498 2.32836327,19.0502939 2.3297102,19.0520898 L2.32162857,19.0624163 C2.32881224,19.0758857 2.33150612,19.0817224 2.33464898,19.0862122 C2.4244449,19.2002531 2.52860816,19.2981306 2.62109796,19.4090286 C2.64085306,19.4323755 2.65881224,19.4566204 2.67856735,19.4795184 C2.70550612,19.510498 2.73558776,19.5378857 2.76252653,19.5679673 C3.37493469,20.278702 4.03493469,20.9427429 4.77440408,21.5255184 C4.82962857,21.5695184 4.85701633,21.5434776 4.89652653,21.5129469 C5.45146531,21.0855184 6.00460816,20.654049 6.5626898,20.2315592 C6.88954694,19.9846204 7.25636327,19.9316408 7.62632245,20.104049 C8.14354694,20.345151 8.66930204,20.5611102 9.20628163,20.7541714 C9.48599592,20.8542939 9.67546531,21.0401714 9.78187347,21.2889061 C9.8164449,21.379151 9.84293469,21.4765796 9.85730204,21.5838857 C9.92464898,22.0930286 9.99109796,22.6026204 10.0584449,23.1122122 C10.0844857,23.3097633 10.1109755,23.5082122 10.1370163,23.7030694 C10.1518327,23.7075592 10.1576694,23.7102531 10.1630571,23.711151 L10.166649,23.711151 C10.1949347,23.7529061 10.2452204,23.7645796 10.3664449,23.7807429 C10.3902408,23.7838857 10.4140367,23.7870286 10.4387306,23.7888245 C11.1934653,23.8629061 11.9513429,23.8804163 12.7087714,23.8368653 C13.0122816,23.8189061 13.3144449,23.7865796 13.6170571,23.7591918 C13.664649,23.754702 13.7046082,23.7502122 13.7135878,23.6801714 C13.7997918,22.9927837 13.8913837,22.3053959 13.9811796,21.6175592 C14.0382,21.1780082 14.2734653,20.8704571 14.6901184,20.7227429 C15.1983633,20.5436 15.6949347,20.3411102 16.1789347,20.103151 C16.5735878,19.9109878 16.9552204,19.9549878 17.3063224,20.2189878 C17.5945673,20.4349469 17.8792204,20.6558449 18.1656694,20.8749469 C18.4512204,21.093151 18.7372204,21.312702 19.0272612,21.534049 C19.9642816,20.7945796 20.8002816,19.9603755 21.5339143,19.0242531 C21.5150571,18.9986612 21.5011388,18.980702 21.4872204,18.9613959 C21.4845265,18.9488245 21.4872204,18.938049 21.474649,18.9214367 C21.0485673,18.3745796 20.6265265,17.8245796 20.2035878,17.2763755 C20.1398327,17.1937633 20.0908939,17.1089061 20.0513837,17.023151 C19.9494653,16.7744163 19.9458735,16.5104163 20.0706898,16.2437224 C20.3153837,15.7170694 20.5353837,15.1827837 20.7347306,14.6390694 L21.0674245,14.1357633 C21.2070571,14.0369878 21.3713837,13.9678449 21.5675878,13.9404571 C21.9245265,13.8897224 22.2819143,13.8448245 22.639751,13.7972327 C22.9975878,13.7500898 23.3549755,13.7029469 23.7168531,13.6544571 C23.8573837,12.470498 23.8582816,11.2910286 23.7146082,10.1124571 Z" id="Stroke-7" stroke="#333333" stroke-width="2" stroke-linecap="round" stroke-linejoin="round"></path>
            </g>
        </g>
    </g>
</svg>