<?xml version="1.0" encoding="UTF-8"?>
<svg width="45px" height="42px" viewBox="0 0 45 42" version="1.1" xmlns="http://www.w3.org/2000/svg" xmlns:xlink="http://www.w3.org/1999/xlink">
    <!-- Generator: Sketch 52.6 (67491) - http://www.bohemiancoding.com/sketch -->
    <title>Group 28</title>
    <desc>Created with Sketch.</desc>
    <g id="top-navigation" stroke="none" stroke-width="1" fill="none" fill-rule="evenodd">
        <g id="nav-redesign-final-solid" transform="translate(-645.000000, -94.000000)">
            <g id="Group-28" transform="translate(646.000000, 95.000000)">
                <polygon id="Fill-1" fill="#E24329" points="21.5165333 39.6184889 21.5165333 39.6184889 29.4392 15.5122667 13.5943111 15.5122667"></polygon>
                <polygon id="Fill-2" fill="#FC6D26" points="21.5108889 39.6184889 13.5882222 15.5122667 2.49488889 15.5122667"></polygon>
                <path d="M2.49133333,15.5204 L0.0802222222,22.8444 C-0.138,23.5101778 0.0975555556,24.2439556 0.674444444,24.6586222 L21.5068889,39.6266222 L2.49133333,15.5204 Z" id="Fill-3" fill="#FCA326"></path>
                <path d="M2.49395556,15.5204 L13.5957333,15.5204 L8.81795556,1.00173333 C8.57351111,0.258622222 7.50773333,0.258622222 7.25484444,1.00173333 L2.49395556,15.5204 Z" id="Fill-5" fill="#E24329"></path>
                <polygon id="Fill-7" fill="#FC6D26" points="21.5165333 39.6184889 29.4392 15.5122667 40.5414222 15.5122667"></polygon>
                <path d="M40.5330222,15.5204 L42.9441333,22.8444 C43.1623556,23.5101778 42.9268,24.2439556 42.3499111,24.6586222 L21.5174667,39.6181778 L40.5330222,15.5204 Z" id="Fill-9" fill="#FCA326"></path>
                <path d="M40.5391111,15.5204 L29.4373333,15.5204 L34.2062222,1.00173333 C34.4511111,0.258622222 35.5164444,0.258622222 35.7697778,1.00173333 L40.5391111,15.5204 Z" id="Fill-11" fill="#E24329"></path>
                <polygon id="Stroke-13" stroke="#251B3F" stroke-width="2" stroke-linecap="round" stroke-linejoin="round" points="21.5165333 39.6184889 21.5165333 39.6184889 29.4392 15.5122667 13.5943111 15.5122667"></polygon>
                <polygon id="Stroke-15" stroke="#251B3F" stroke-width="2" stroke-linecap="round" stroke-linejoin="round" points="21.5108889 39.6184889 13.5882222 15.5122667 2.49488889 15.5122667"></polygon>
                <path d="M2.49133333,15.5204 L0.0802222222,22.8444 C-0.138,23.5101778 0.0975555556,24.2439556 0.674444444,24.6586222 L21.5068889,39.6266222 L2.49133333,15.5204 Z" id="Stroke-17" stroke="#251B3F" stroke-width="2" stroke-linecap="round" stroke-linejoin="round"></path>
                <path d="M2.49395556,15.5204 L13.5957333,15.5204 L8.81795556,1.00173333 C8.57351111,0.258622222 7.50773333,0.258622222 7.25484444,1.00173333 L2.49395556,15.5204 Z" id="Stroke-19" stroke="#251B3F" stroke-width="2" stroke-linecap="round" stroke-linejoin="round"></path>
                <polygon id="Stroke-21" stroke="#251B3F" stroke-width="2" stroke-linecap="round" stroke-linejoin="round" points="21.5165333 39.6184889 29.4392 15.5122667 40.5414222 15.5122667"></polygon>
                <path d="M40.5330222,15.5204 L42.9441333,22.8444 C43.1623556,23.5101778 42.9268,24.2439556 42.3499111,24.6586222 L21.5174667,39.6181778 L40.5330222,15.5204 Z" id="Stroke-23" stroke="#251B3F" stroke-width="2" stroke-linecap="round" stroke-linejoin="round"></path>
                <path d="M40.5391111,15.5204 L29.4373333,15.5204 L34.2062222,1.00173333 C34.4511111,0.258622222 35.5164444,0.258622222 35.7697778,1.00173333 L40.5391111,15.5204 Z" id="Stroke-25" stroke="#251B3F" stroke-width="2" stroke-linecap="round" stroke-linejoin="round"></path>
            </g>
        </g>
    </g>
</svg>